<svg width="32" height="32" viewBox="0 0 32 32" fill="none" xmlns="http://www.w3.org/2000/svg">
<circle cx="16" cy="16" r="16" fill="#F2994A"/>
<path d="M17.0909 13.0186C17.0909 11.4085 15.7653 10.0984 14.1363 10.0984C12.5072 10.0984 11.1816 11.4085 11.1816 13.0186C11.1816 14.6287 12.5072 15.9389 14.1363 15.9389C15.7653 15.9389 17.0909 14.6287 17.0909 13.0186Z" fill="white"/>
<path d="M10 20.0273V21.8184H18.2729V20.0273C18.2729 17.7733 16.417 15.939 14.1365 15.939C11.8559 15.939 10 17.7733 10 20.0273Z" fill="white"/>
<path d="M22.9995 21.1954C22.9995 19.5853 21.674 18.2751 20.0449 18.2751C19.7393 18.2751 19.4503 18.3345 19.1729 18.4199C19.3401 18.9298 19.454 19.4632 19.454 20.0273V21.8184H22.9995V21.1954Z" fill="white"/>
<path d="M22.41 15.9389C22.41 14.6505 21.3499 13.6027 20.0463 13.6027C18.7427 13.6027 17.6826 14.6505 17.6826 15.9389C17.6826 16.0132 17.6979 16.0835 17.7048 16.1561C18.2875 16.6811 18.7575 17.3219 19.0594 18.0548C19.3607 18.1928 19.693 18.2751 20.0463 18.2751C21.3499 18.2751 22.41 17.2273 22.41 15.9389Z" fill="white"/>
</svg>
