<svg width="76" height="76" viewBox="0 0 76 76" fill="none" xmlns="http://www.w3.org/2000/svg">
<circle cx="38" cy="38" r="38" fill="#C6EFE5" fill-opacity="0.76"/>
<path d="M51.9091 33.3622V31.9432C51.9091 30.3177 50.5914 29 48.9659 29H27.9432C26.3177 29 25 30.3177 25 31.9432V33.3622C25 33.5073 25.1177 33.625 25.2628 33.625H51.6463C51.7914 33.625 51.9091 33.5073 51.9091 33.3622Z" fill="#0EBE7F"/>
<path d="M25 35.5695V44.5568C25 46.1822 26.3177 47.4999 27.9432 47.4999H48.9659C50.5914 47.4999 51.9091 46.1822 51.9091 44.5568V35.5695C51.9091 35.4244 51.7914 35.3068 51.6463 35.3068H25.2628C25.1177 35.3068 25 35.4244 25 35.5695ZM31.7273 42.4545C31.7273 42.9189 31.3508 43.2954 30.8864 43.2954H30.0455C29.5811 43.2954 29.2045 42.9189 29.2045 42.4545V41.6136C29.2045 41.1492 29.5811 40.7727 30.0455 40.7727H30.8864C31.3508 40.7727 31.7273 41.1492 31.7273 41.6136V42.4545Z" fill="#0EBE7F"/>
</svg>
