<svg width="32" height="32" viewBox="0 0 32 32" fill="none" xmlns="http://www.w3.org/2000/svg">
<circle cx="16" cy="16" r="16" fill="#56CCF2"/>
<path d="M17.4082 8C17.1653 8 16.9688 8.19655 16.9688 8.43945V14.6211C16.9688 14.864 17.1653 15.0605 17.4082 15.0605H23.5605C23.8034 15.0605 24 14.864 24 14.6211C24 10.9862 21.0431 8 17.4082 8Z" fill="white"/>
<path d="M18.2223 22.0147L16.0898 16.2991V10.2266C16.0898 9.98366 15.8933 9.78711 15.6504 9.78711C12.0155 9.78711 9 12.744 9 16.3789C9 20.0138 12.0155 23 15.6504 23C16.446 23 17.225 22.8588 17.9653 22.5807C18.1923 22.4953 18.3073 22.2421 18.2223 22.0147Z" fill="white"/>
<path d="M23.5606 15.9395H17.4083C17.2641 15.9395 17.1294 16.0103 17.0469 16.1287C16.965 16.2472 16.9461 16.3982 16.9967 16.5334L19.1571 22.3237C19.1983 22.4327 19.2807 22.5211 19.3871 22.5691C19.4936 22.6176 19.6136 22.6217 19.7236 22.5803C22.2813 21.6177 24.0001 19.1083 24.0001 16.3789C24.0001 16.136 23.8035 15.9395 23.5606 15.9395Z" fill="white"/>
</svg>
